<?xml version="1.0" encoding="iso-8859-1"?>
<!-- Generator: Adobe Illustrator 15.0.0, SVG Export Plug-In . SVG Version: 6.00 Build 0)  -->
<!DOCTYPE svg PUBLIC "-//W3C//DTD SVG 1.1//EN" "http://www.w3.org/Graphics/SVG/1.1/DTD/svg11.dtd">
<svg version="1.1" id="money" xmlns="http://www.w3.org/2000/svg" xmlns:xlink="http://www.w3.org/1999/xlink" x="0px" y="0px"
	 width="141.73px" height="141.73px" viewBox="0 0 141.73 141.73" style="enable-background:new 0 0 141.73 141.73;"
	 xml:space="preserve">
<g>
	<path style="fill-rule:evenodd;clip-rule:evenodd;fill:#598B3F;" d="M111.838,58.231c0,0,5.525,11.764,9.458,14.942
		c-0.403,0.063-8.2-5.519-12.075-10.273C109.052,63.315,111.838,58.231,111.838,58.231z"/>
	<path style="fill-rule:evenodd;clip-rule:evenodd;fill:#598B3F;" d="M81.406,28.718c0,0-13.846-4.036-19.039-8.444
		c0.023,0.576,6.015,9.409,13.146,13.19C74.992,33.791,81.406,28.718,81.406,28.718z"/>
	<path style="fill-rule:evenodd;clip-rule:evenodd;fill:#E13D2B;" d="M99.049,36.598c2.023,1.2,7.691,5.462,9.025,8.364
		c1.332,2.899,5.016,11.11,3.506,22.911c-0.383,0.043,0.788,9.586-6.891,23.367c-0.152,0.403-7.852,19.342-39.009,26.271
		c0.009-0.003,0.015-0.006,0.015-0.006c0,0.003-28.393,10.555-37.966,3.658c-0.191,0.022-11.076-3.574-8.778-26.214
		c-0.192,0.021,5.069-29.467,5.817-31.498c0.75-2.028-0.088-13.05,17.635-25.933c0.364-0.235,23.006-13.081,40.658-8.547
		C82.85,28.796,97.024,35.395,99.049,36.598z"/>
	<path style="fill-rule:evenodd;clip-rule:evenodd;fill:#E57A46;" d="M85.985,33.937c0,0-6.771-1.994-8.443-2.375
		c1.089-0.04,4.15-0.705,4.15-0.705s-5.036-1.624-7.364-2.904c2.14,0.103,6.686,0.49,8.733,1.017
		c-0.212-0.174,13.963,6.425,15.987,7.627c2.023,1.2,7.691,5.462,9.025,8.364c1.332,2.899,5.17,9.498,3.658,21.295
		c-0.077,0.012-2.555-7.513-2.555-7.513l-0.963,5.431l-2.592-10.203l-0.613,4.17c0,0-2.497-6.728-2.918-8.513
		c0.055-0.249,0.057-0.409-0.021-0.43c-0.061-0.017-0.046,0.144,0.021,0.43c-0.232,1.074-1.459,3.784-1.459,3.784l-1.641-7.771
		l-3.996,2.698l0.57-4.996L91.01,43.18l1.913-2.999l-6.25-0.905l2.781-2.217l-6.249-0.905L85.985,33.937z M77.176,31.517
		c-0.038-0.034,0.097-0.017,0.366,0.046C77.35,31.568,77.221,31.557,77.176,31.517z"/>
	<path style="fill-rule:evenodd;clip-rule:evenodd;fill:#6BA74B;" d="M107.456,39.053c0,0,2.669,1.962,2.701,2.509
		c0.031,0.55-1.094,3.961-0.905,4.348c0.191,0.387,0.4,1.28,0.685,2.664c0.286,1.386,2.137,6.926,2.137,6.926
		s-7.742-8.255-8.444-9.028c-0.698-0.771-5.353-5.333-5.736-5.786c-0.384-0.45-3.687-4.296-3.687-4.296s-2.363-2.919-2.971-3.337
		c-0.606-0.418-2.371-0.307-3.041-1.177c-0.673-0.871-8.086-3.348-10.584-6.447c0.192,0.063,9.756,5.288,14.935,5.726
		c0.415,0.352,1.572,0.166,3.405,0.742c-0.129-0.258,3.549-0.372,4.38,0.659c0.828,1.031,1.223,1.804,1.827,2.223
		c0.607,0.418,2.566,1.429,2.758,1.815C105.104,36.979,107.456,39.053,107.456,39.053z"/>
	<path style="fill-rule:evenodd;clip-rule:evenodd;fill:#598B3F;" d="M105.669,48.018c0,0,6.813,6.141,17.429,10.097
		c-0.572,0.452-6.227,3.07-11.34,1.672C112.395,60.428,109.55,55.542,105.669,48.018z"/>
	<path style="fill-rule:evenodd;clip-rule:evenodd;fill:#598B3F;" d="M104.858,47.625c0,0-0.404-8.47,1.208-14.078
		c0.124-0.278-6.493,2.772-6.831,3.059c-0.335,0.286-1.378,0.169-1.979,0.206c-1.054,0.066-3.672-0.473-3.672-0.473
		S100.545,45.557,104.858,47.625z"/>
	<path style="fill-rule:evenodd;clip-rule:evenodd;fill:#598B3F;" d="M94.639,37.016c0,0-3.724-10.615-3.598-15.856
		c-0.16-0.16-5.308,6.402-4.803,9.742C86.332,31.256,91.029,33.441,94.639,37.016z"/>
	<path style="fill-rule:evenodd;clip-rule:evenodd;fill:#598B3F;" d="M86.396,31.033c0,0-7.505-8.436-8.948-12.803
		c-0.129,0.066-2.612,6.252,0.593,9.861C77.911,28.157,84.029,29.81,86.396,31.033z"/>
	<path style="fill-rule:evenodd;clip-rule:evenodd;fill:#E57A46;" d="M97.743,62.843c0,0,0.275-1.558-1.266-1.203
		c0.011,0.018-1.295,0.33-2.205,2.544c0.003-0.003,0.003-0.003,0.003-0.003c-0.01-0.003-0.777,1.621,0.993,0.914
		C95.234,65.111,97.577,64.241,97.743,62.843z"/>
	<path style="fill-rule:evenodd;clip-rule:evenodd;fill:#E57A46;" d="M105.78,67.454c0,0,0.166-1.735-1.495-1
		c0.018,0.017-1.521,0.713-1.91,3.257c0-0.003,0-0.003,0-0.003c-0.012-0.003-0.35,1.549,1.312,0.389l0,0
		C103.687,70.101,105.727,68.723,105.78,67.454z"/>
	<path style="fill-rule:evenodd;clip-rule:evenodd;fill:#E57A46;" d="M88.279,52.374c0,0,0.272-1.558-1.269-1.203
		c0.015,0.018-1.294,0.33-2.202,2.544c0-0.003,0-0.003,0-0.003c-0.006-0.003-0.773,1.621,0.996,0.913
		C85.771,54.646,88.113,53.771,88.279,52.374z"/>
	<path style="fill-rule:evenodd;clip-rule:evenodd;fill:#E57A46;" d="M81.048,46.657c0,0,0.274-1.559-1.267-1.203
		c0.012,0.017-1.295,0.329-2.202,2.543c0-0.003,0-0.003,0-0.003c-0.006-0.003-0.773,1.621,0.997,0.914
		C78.539,48.925,80.882,48.055,81.048,46.657z"/>
	<path style="fill-rule:evenodd;clip-rule:evenodd;fill:#E57A46;" d="M72.006,42.473c0,0,0.274-1.559-1.267-1.203
		c0.012,0.017-1.294,0.329-2.203,2.543c0-0.002,0-0.002,0-0.002c-0.006-0.003-0.773,1.621,0.997,0.914
		C69.496,44.744,71.839,43.87,72.006,42.473z"/>
	<path style="fill-rule:evenodd;clip-rule:evenodd;fill:#E57A46;" d="M66.394,34.255c0,0,0.848-1.507-1.3-1.114
		c0.012,0.014-1.483,0.295-2.701,1.951c0-0.003,0-0.003,0-0.003c-0.003-0.003-0.842,1.025,0.736,0.776
		C63.092,35.873,65.804,35.495,66.394,34.255z"/>
	<path style="fill-rule:evenodd;clip-rule:evenodd;fill:#E57A46;" d="M102.871,79.846c0,0,0.022-1.498-1.436-0.917
		c0.014,0.015-1.223,0.516-1.771,2.732c0.003,0,0.003-0.003,0.003-0.003c-0.008-0.003-0.507,1.641,1.123,0.693
		C100.76,82.374,102.925,81.18,102.871,79.846z"/>
	<path style="fill-rule:evenodd;clip-rule:evenodd;fill:#E57A46;" d="M98.906,91.666c0,0,0.068-1.787-1.559-1.108
		c0.015,0.017-1.193,0.532-1.655,2.744c0-0.003,0-0.003,0-0.003c-0.005-0.004-0.392,1.489,1.022,0.842
		C96.684,94.158,98.938,93.201,98.906,91.666z"/>
	<path style="fill-rule:evenodd;clip-rule:evenodd;fill:#E57A46;" d="M94.701,72.1c0,0,0.275-1.558-1.266-1.203
		c0.012,0.017-1.295,0.33-2.205,2.543c0.002-0.003,0.002-0.003,0.002-0.003c-0.008-0.002-0.776,1.622,0.994,0.914
		C92.192,74.369,94.535,73.498,94.701,72.1z"/>
	<path style="fill-rule:evenodd;clip-rule:evenodd;fill:#E57A46;" d="M93.332,82.134c0,0,0.275-1.559-1.266-1.203
		c0.012,0.018-1.294,0.329-2.205,2.544c0.003-0.004,0.003-0.004,0.003-0.004c-0.009-0.002-0.776,1.621,0.993,0.914
		C90.823,84.402,93.166,83.531,93.332,82.134z"/>
	<path style="fill-rule:evenodd;clip-rule:evenodd;fill:#E57A46;" d="M87.426,62.769c0,0,0.275-1.556-1.266-1.2
		c0.012,0.014-1.295,0.327-2.205,2.541c0.003,0,0.003-0.003,0.003-0.003c-0.009-0.003-0.773,1.624,0.997,0.914
		C84.917,65.04,87.26,64.166,87.426,62.769z"/>
	<path style="fill-rule:evenodd;clip-rule:evenodd;fill:#E57A46;" d="M85.633,72.401c0,0,0.275-1.559-1.266-1.204
		c0.012,0.017-1.295,0.33-2.205,2.543c0.003-0.003,0.003-0.003,0.003-0.003c-0.009-0.003-0.776,1.621,0.993,0.914
		C83.124,74.673,85.467,73.799,85.633,72.401z"/>
	<path style="fill-rule:evenodd;clip-rule:evenodd;fill:#E57A46;" d="M77.419,58.939c0,0,0.272-1.555-1.267-1.2
		c0.012,0.014-1.295,0.327-2.205,2.543c0-0.003,0.003-0.006,0-0.006c-0.006-0.003-0.773,1.624,0.996,0.914
		C74.91,61.21,77.252,60.337,77.419,58.939z"/>
	<path style="fill-rule:evenodd;clip-rule:evenodd;fill:#E57A46;" d="M78.074,67.658c0,0,0.275-1.558-1.266-1.203
		c0.012,0.017-1.295,0.33-2.205,2.543c0.003-0.003,0.003-0.003,0.003-0.003c-0.009-0.003-0.776,1.624,0.993,0.914
		C75.565,69.929,77.908,69.056,78.074,67.658z"/>
	<path style="fill-rule:evenodd;clip-rule:evenodd;fill:#E57A46;" d="M72.264,51.621c0,0,0.271-1.558-1.267-1.203
		c0.012,0.017-1.295,0.329-2.206,2.543c0-0.003,0.003-0.003,0-0.003c-0.005-0.006-0.773,1.621,0.997,0.914
		C69.754,53.889,72.097,53.019,72.264,51.621z"/>
	<path style="fill-rule:evenodd;clip-rule:evenodd;fill:#E57A46;" d="M66.772,61.792c0,0,0.272-1.558-1.269-1.203
		c0.011,0.017-1.294,0.329-2.203,2.543c0-0.003,0-0.003,0-0.003c-0.006-0.006-0.773,1.621,0.997,0.914l0,0
		C64.298,64.046,66.606,63.178,66.772,61.792z"/>
	<path style="fill-rule:evenodd;clip-rule:evenodd;fill:#E57A46;" d="M61.683,47.926c0,0,0.272-1.555-1.269-1.2
		c0.014,0.015-1.292,0.327-2.203,2.544c0-0.003,0-0.006,0-0.006c-0.006-0.003-0.773,1.624,0.997,0.917
		C59.173,50.197,61.517,49.324,61.683,47.926z"/>
	<path style="fill-rule:evenodd;clip-rule:evenodd;fill:#E57A46;" d="M55.831,57.874c0,0,0.275-1.555-1.266-1.203
		c0.011,0.017-1.294,0.33-2.203,2.543c0-0.003,0-0.003,0-0.003c-0.009-0.003-0.773,1.624,0.997,0.914l0,0
		C53.359,60.13,55.665,59.26,55.831,57.874z"/>
	<path style="fill-rule:evenodd;clip-rule:evenodd;fill:#E57A46;" d="M67.898,72.573c0,0,0.275-1.556-1.266-1.201
		c0.012,0.017-1.294,0.327-2.206,2.543c0.003-0.003,0.003-0.006,0.003-0.006c-0.008-0.003-0.776,1.624,0.994,0.917
		C65.389,74.844,67.732,73.974,67.898,72.573z"/>
	<path style="fill-rule:evenodd;clip-rule:evenodd;fill:#E57A46;" d="M75.857,76.887c0,0,0.275-1.556-1.266-1.201
		c0.012,0.018-1.295,0.327-2.206,2.544c0.003-0.003,0.003-0.006,0.003-0.006c-0.008-0.003-0.775,1.624,0.994,0.917
		C73.349,79.158,75.691,78.287,75.857,76.887z"/>
	<path style="fill-rule:evenodd;clip-rule:evenodd;fill:#E57A46;" d="M83.062,83.723c0,0,0.274-1.558-1.267-1.202
		c0.012,0.017-1.295,0.329-2.202,2.543c0-0.003,0-0.003,0-0.003c-0.006-0.003-0.773,1.621,0.997,0.914
		C80.552,85.994,82.896,85.121,83.062,83.723z"/>
	<path style="fill-rule:evenodd;clip-rule:evenodd;fill:#E57A46;" d="M88.314,92.723c0,0,0.398-1.438-1.258-1.191
		c0.012,0.014-1.392,0.234-2.506,2.254c0-0.003,0.003-0.003,0-0.003c-0.006-0.005-0.931,1.473,0.994,0.908
		C85.504,94.707,88.042,94.02,88.314,92.723z"/>
	<path style="fill-rule:evenodd;clip-rule:evenodd;fill:#E57A46;" d="M89.322,100.994c0,0,0.272-1.558-1.269-1.202
		c0.015,0.017-1.295,0.329-2.202,2.543c0-0.003,0-0.003,0-0.003c-0.006-0.003-0.773,1.624,0.996,0.914
		C86.813,103.266,89.156,102.393,89.322,100.994z"/>
	<path style="fill-rule:evenodd;clip-rule:evenodd;fill:#E57A46;" d="M76.769,93.348c0,0,0.396-1.438-1.258-1.195
		c0.012,0.018-1.392,0.238-2.506,2.258c0-0.004,0-0.004,0-0.006c-0.006-0.003-0.931,1.475,0.991,0.91
		C73.956,95.332,76.496,94.645,76.769,93.348z"/>
	<path style="fill-rule:evenodd;clip-rule:evenodd;fill:#E57A46;" d="M65.392,84.629c0,0,0.272-1.556-1.269-1.201
		c0.011,0.015-1.295,0.327-2.203,2.541v-0.003c-0.005-0.003-0.773,1.624,0.997,0.914C62.88,86.899,65.223,86.026,65.392,84.629z"/>
	<path style="fill-rule:evenodd;clip-rule:evenodd;fill:#E57A46;" d="M58.337,69.978c0,0,0.272-1.555-1.266-1.2
		c0.011,0.015-1.295,0.327-2.206,2.541c0,0,0.002-0.003,0-0.003c-0.006-0.003-0.773,1.624,0.997,0.917
		C55.828,72.249,58.171,71.378,58.337,69.978z"/>
	<path style="fill-rule:evenodd;clip-rule:evenodd;fill:#E57A46;" d="M52.869,80.982c0,0,0.272-1.559-1.269-1.203
		c0.014,0.018-1.295,0.329-2.203,2.544c0-0.003,0-0.003,0-0.003c-0.006-0.006-0.773,1.621,0.997,0.913
		C50.36,83.251,52.703,82.38,52.869,80.982z"/>
	<path style="fill-rule:evenodd;clip-rule:evenodd;fill:#E57A46;" d="M46.674,63.888c0,0,0.275-1.558-1.266-1.203
		c0.011,0.017-1.295,0.329-2.206,2.543c0.002-0.002,0.002-0.002,0.002-0.002c-0.008-0.003-0.776,1.621,0.994,0.914
		C44.165,66.157,46.508,65.286,46.674,63.888z"/>
	<path style="fill-rule:evenodd;clip-rule:evenodd;fill:#E57A46;" d="M36.847,52.171c0,0,0.141-1.782-1.438-1.295
		c0.014,0.017-1.307,0.438-1.997,2.939c0-0.003,0-0.006,0-0.006c-0.009-0.003-0.602,1.793,1.105,0.962
		C34.483,54.794,36.804,53.743,36.847,52.171z"/>
	<path style="fill-rule:evenodd;clip-rule:evenodd;fill:#E57A46;" d="M44.016,74.199c0,0,0.272-1.555-1.269-1.199
		c0.012,0.014-1.295,0.326-2.203,2.54v-0.003c-0.005-0.003-0.773,1.624,0.997,0.914C41.507,76.471,43.847,75.598,44.016,74.199z"/>
	<path style="fill-rule:evenodd;clip-rule:evenodd;fill:#E57A46;" d="M36.609,62.929c0,0,0.035-1.744-1.429-1.097
		c0.015,0.014-1.223,0.573-1.782,3.139c0-0.002,0-0.002,0-0.002c-0.008-0.003-0.515,1.899,1.117,0.828
		C34.483,65.822,36.658,64.479,36.609,62.929z"/>
	<path style="fill-rule:evenodd;clip-rule:evenodd;fill:#E57A46;" d="M77.92,106.368c0,0,0.274-1.559-1.266-1.203
		c0.011,0.017-1.295,0.329-2.206,2.544c0.003-0.003,0.003-0.003,0.003-0.003c-0.008-0.003-0.776,1.621,0.994,0.913
		C75.411,108.64,77.754,107.766,77.92,106.368z"/>
	<path style="fill-rule:evenodd;clip-rule:evenodd;fill:#E57A46;" d="M67.165,100.382c0,0,0.381-1.263-1.226-1.22
		c0.011,0.014-1.28,0.054-2.575,1.698c0.003-0.003,0.003-0.003,0.003-0.003c-0.006-0.006-1.18,1.334,0.793,1.094
		C64.117,101.96,66.87,101.69,67.165,100.382z"/>
	<path style="fill-rule:evenodd;clip-rule:evenodd;fill:#E57A46;" d="M66.907,109.301c0,0,0.556-1.598-1.361-1.42
		c0.011,0.017-1.312,0.146-2.438,1.881l0.003-0.002c-0.006-0.004-0.868,1.193,0.693,1.111
		C63.768,110.876,66.5,110.802,66.907,109.301z"/>
	<path style="fill-rule:evenodd;clip-rule:evenodd;fill:#E57A46;" d="M60.19,93.61c0,0,0.272-1.555-1.266-1.2
		c0.011,0.015-1.294,0.326-2.206,2.541v-0.003c-0.006-0.003-0.773,1.624,0.997,0.913C57.681,95.882,60.024,95.008,60.19,93.61z"/>
	<path style="fill-rule:evenodd;clip-rule:evenodd;fill:#E57A46;" d="M49.071,92.76c0,0,0.275-1.555-1.266-1.2
		c0.012,0.015-1.294,0.327-2.203,2.541v-0.003c-0.006-0.003-0.773,1.624,0.997,0.914C46.562,95.031,48.905,94.158,49.071,92.76z"/>
	<path style="fill-rule:evenodd;clip-rule:evenodd;fill:#E57A46;" d="M41.421,84.691c0,0,0.275-1.559-1.266-1.203
		c0.012,0.018-1.294,0.33-2.206,2.543c0-0.002,0.003-0.002,0.003-0.002c-0.009-0.003-0.776,1.621,0.994,0.913
		C38.912,86.963,41.255,86.089,41.421,84.691z"/>
	<path style="fill-rule:evenodd;clip-rule:evenodd;fill:#E57A46;" d="M29.079,74.14c0,0,0.011-1.513-1.237-1.14
		c0.011,0.017-1.221,0.397-1.667,2.921c0-0.003,0-0.006,0-0.006c-0.008,0-0.441,1.839,1.192,0.682
		C27.334,76.623,29.127,75.414,29.079,74.14z"/>
	<path style="fill-rule:evenodd;clip-rule:evenodd;fill:#E57A46;" d="M30.356,85.235c0,0-0.25-1.12-1.301-0.584
		c0.015,0.009-1.063,0.573-1.423,2.979v-0.003c-0.008,0-0.504,2.415,1.352,0.433C28.953,88.097,30.668,86.339,30.356,85.235z"/>
	<path style="fill-rule:evenodd;clip-rule:evenodd;fill:#E57A46;" d="M38.917,98.508c0,0,0.275-1.558-1.266-1.202
		c0.012,0.018-1.294,0.329-2.203,2.543c0-0.003,0-0.003,0-0.003c-0.005-0.002-0.773,1.621,0.997,0.914
		C36.408,100.779,38.751,99.906,38.917,98.508z"/>
	<path style="fill-rule:evenodd;clip-rule:evenodd;fill:#E57A46;" d="M53.754,103.229c0,0,0.536-1.596-0.968-1.518
		c0.009,0.02-1.266,0.098-2.515,2.266c0-0.003,0-0.003,0-0.003c-0.006-0.006-1.014,1.566,0.765,1.16
		C50.999,105.148,53.345,104.676,53.754,103.229z"/>
	<path style="fill-rule:evenodd;clip-rule:evenodd;fill:#E57A46;" d="M54.522,115.006c0,0,1.503-1.555-0.659-1.724
		c0.003,0.023-1.564-0.089-3.153,1.615c0-0.003,0-0.003,0-0.003c-0.003-0.005-0.92,0.885,0.527,0.991l0,0
		C51.237,115.889,53.565,116.106,54.522,115.006z"/>
	<path style="fill-rule:evenodd;clip-rule:evenodd;fill:#E57A46;" d="M42.266,111.489c0,0,0.67-1.169-0.49-1.478
		c0.003,0.02-1.32-0.318-3.179,1.741c0.003-0.003,0.003-0.003,0.003-0.003c-0.009-0.009-1.655,1.607,0.934,1.129
		C39.49,112.89,41.733,112.518,42.266,111.489z"/>
	<path style="fill-rule:evenodd;clip-rule:evenodd;fill:#E57A46;" d="M31.468,111.652c0,0,0.275-1.559-1.266-1.203
		c0.011,0.018-1.294,0.33-2.206,2.544c0.003-0.003,0.003-0.003,0.003-0.003c-0.009-0.003-0.776,1.621,0.994,0.914
		C28.958,113.921,31.302,113.051,31.468,111.652z"/>
	<path style="fill-rule:evenodd;clip-rule:evenodd;fill:#E57A46;" d="M27.266,98.342c0,0-0.501-1.122-1.575-0.283
		c0.015,0.006-0.951,0.771-0.919,3.022c0-0.003,0-0.003,0-0.003c-0.008,0-0.091,2.153,1.389,0.36
		C26.135,101.476,27.861,99.485,27.266,98.342z"/>
	<path style="fill-rule:evenodd;clip-rule:evenodd;fill:#E57A46;" d="M56.653,40.613c0,0,0.98-1.621-0.928-1.615
		c0.009,0.02-1.357,0.031-2.749,1.805c0-0.003,0.002-0.003,0-0.003c-0.003-0.006-0.957,1.1,0.532,1.103l0,0
		C53.505,41.908,55.937,41.971,56.653,40.613z"/>
	<path style="fill-rule:evenodd;clip-rule:evenodd;fill:#E57A46;" d="M45.52,41.816c0,0,0.275-1.558-1.266-1.203
		c0.011,0.018-1.295,0.33-2.206,2.543c0.003-0.002,0.003-0.002,0.003-0.002c-0.008-0.003-0.776,1.621,0.994,0.914
		C43.011,44.088,45.354,43.214,45.52,41.816z"/>
	<path style="fill-rule:evenodd;clip-rule:evenodd;fill:#E57A46;" d="M47.837,50.636c0,0,0.275-1.556-1.266-1.203
		c0.011,0.017-1.294,0.329-2.203,2.543c0-0.002,0-0.002,0-0.002c-0.009-0.003-0.773,1.624,0.997,0.914
		C45.328,52.907,47.671,52.033,47.837,50.636z"/>
	<path style="fill-rule:evenodd;clip-rule:evenodd;fill:#E57A46;" d="M104.761,56.47c0,0-0.114-1.618-1.562-0.879
		c0.015,0.011-1.208,0.65-1.563,3.082c0-0.003,0-0.006,0-0.006c-0.009,0-0.369,1.81,1.221,0.664
		C102.824,59.357,104.944,57.905,104.761,56.47z"/>
	<path style="fill-rule:evenodd;clip-rule:evenodd;fill:#E57A46;" d="M97.004,47.539c0,0,0.275-1.555-1.266-1.2
		c0.012,0.015-1.295,0.327-2.205,2.541c0.002,0,0.002-0.003,0.002-0.003c-0.008-0.003-0.775,1.624,0.998,0.917
		C94.496,49.811,96.838,48.937,97.004,47.539z"/>
	<path style="fill-rule:evenodd;clip-rule:evenodd;fill:#E57A46;" d="M88.246,39.348c0,0,0.274-1.559-1.267-1.203
		c0.012,0.017-1.294,0.329-2.206,2.543c0.004-0.003,0.004-0.003,0.004-0.003c-0.009-0.003-0.777,1.621,0.996,0.914
		C85.736,41.619,88.08,40.745,88.246,39.348z"/>
	<path style="fill-rule:evenodd;clip-rule:evenodd;fill:#E57A46;" d="M78.871,33.504c0,0,0.753-1.234-0.406-1.535
		c0,0.023-1.209-0.275-3.014,1.696c0.002,0,0.002-0.003,0.002-0.003c-0.005-0.006-1.526,1.486,0.674,1.186
		C76.087,34.859,78.261,34.61,78.871,33.504z"/>
</g>
</svg>
